<?xml version="1.0" standalone="no"?>
<!DOCTYPE svg PUBLIC "-//W3C//DTD SVG 20010904//EN"
 "http://www.w3.org/TR/2001/REC-SVG-20010904/DTD/svg10.dtd">
<svg version="1.0" xmlns="http://www.w3.org/2000/svg"
 width="512.000000pt" height="512.000000pt" viewBox="0 0 512.000000 512.000000"
 preserveAspectRatio="xMidYMid meet">

<g transform="translate(0.000000,512.000000) scale(0.100000,-0.100000)"
stroke="none">
<path d="M60 4207 c-30 -15 -60 -71 -60 -112 0 -17 8 -46 18 -65 18 -35 2409
-3040 2463 -3095 25 -25 37 -30 79 -30 40 0 54 5 74 25 14 14 574 714 1246
1555 799 1002 1224 1543 1231 1567 15 46 4 101 -26 135 l-23 28 -2489 2
c-1977 2 -2493 0 -2513 -10z"/>
</g>
</svg>
